<?xml version="1.0" standalone="no"?>
<!DOCTYPE svg PUBLIC "-//W3C//DTD SVG 20010904//EN"
 "http://www.w3.org/TR/2001/REC-SVG-20010904/DTD/svg10.dtd">
<svg version="1.0" xmlns="http://www.w3.org/2000/svg"
 width="715.000000pt" height="715.000000pt" viewBox="0 0 715.000000 715.000000"
 preserveAspectRatio="xMidYMid meet">
<metadata>
Created by potrace 1.14, written by Peter Selinger 2001-2017
</metadata>
<g transform="translate(0.000000,715.000000) scale(0.100000,-0.100000)"
fill="#000000" stroke="none">
<path d="M3510 6924 c-813 -57 -1493 -345 -2091 -887 -268 -242 -532 -592
-706 -934 -271 -532 -388 -1079 -361 -1689 54 -1249 828 -2377 1981 -2889 276
-123 563 -206 889 -257 127 -20 180 -22 468 -22 364 0 465 10 770 80 1323 306
2342 1415 2540 2766 105 715 -26 1463 -366 2083 -157 286 -344 536 -579 771
-619 620 -1421 961 -2300 978 -104 2 -215 2 -245 0z m1478 -1746 c77 -106 144
-202 151 -213 10 -17 -12 -90 -131 -450 l-143 -430 -428 -3 c-248 -1 -427 2
-427 7 0 5 32 97 70 205 39 108 70 199 70 202 0 2 -100 3 -221 2 l-221 -3
-249 -800 c-137 -440 -256 -821 -264 -848 l-14 -47 211 2 211 3 58 195 c32
107 59 198 59 202 0 4 -44 9 -98 10 l-99 3 67 210 66 210 543 3 c514 2 543 1
539 -15 -3 -10 -92 -301 -199 -646 l-194 -629 -287 -209 -288 -209 -658 0
-658 0 -148 211 -148 212 419 1301 418 1301 285 207 285 207 642 1 641 0 140
-192z"/>
<path d="M5325 6858 c-27 -15 -35 -28 -35 -59 0 -33 3 -35 152 -120 383 -219
760 -539 1021 -865 213 -268 423 -626 528 -901 33 -86 50 -106 89 -106 37 0
60 23 60 60 0 65 -192 463 -324 673 -90 144 -209 305 -318 435 -77 91 -314
330 -400 403 -151 128 -356 275 -524 374 -185 110 -218 124 -249 106z"/>
<path d="M862 5943 c-13 -5 -180 -225 -251 -331 -82 -122 -222 -379 -287 -526
-79 -181 -181 -483 -223 -661 -114 -489 -128 -991 -41 -1485 23 -129 26 -139
55 -146 35 -9 56 -2 76 26 17 23 17 30 3 105 -27 147 -44 295 -55 484 -50 830
228 1702 755 2370 36 47 66 94 66 105 0 50 -48 79 -98 59z"/>
<path d="M170 2600 c-11 -11 -20 -27 -20 -36 0 -25 50 -187 66 -211 28 -45
114 -20 114 32 0 42 -61 215 -80 225 -29 16 -58 12 -80 -10z"/>
</g>
</svg>
