<?xml version="1.0" standalone="no"?>
<!DOCTYPE svg PUBLIC "-//W3C//DTD SVG 20010904//EN"
 "http://www.w3.org/TR/2001/REC-SVG-20010904/DTD/svg10.dtd">
<svg version="1.0" xmlns="http://www.w3.org/2000/svg"
 width="419.000000pt" height="419.000000pt" viewBox="0 0 419.000000 419.000000"
 preserveAspectRatio="xMidYMid meet">
<metadata>
Created by potrace 1.14, written by Peter Selinger 2001-2017
</metadata>
<g transform="translate(0.000000,419.000000) scale(0.100000,-0.100000)"
fill="#000000" stroke="none">
<path d="M1937 4090 c-57 -15 -58 -16 -381 -248 -317 -230 -346 -254 -375
-311 -33 -65 -864 -2664 -869 -2717 -7 -85 16 -132 197 -389 176 -251 213
-291 299 -315 24 -6 297 -10 753 -10 l717 0 51 27 c60 32 565 400 628 457 24
21 51 53 62 70 10 17 113 332 228 701 234 754 233 750 180 855 -24 49 -25 56
-11 65 119 74 120 75 295 608 163 496 172 534 136 618 -16 40 -312 455 -361
507 -17 18 -53 44 -81 57 l-50 24 -690 5 c-433 4 -704 2 -728 -4z m1073 -220
l237 0 143 -197 c79 -109 144 -205 144 -213 0 -8 -62 -205 -139 -437 l-139
-423 -423 0 c-246 0 -423 4 -423 9 0 5 32 96 70 202 39 105 69 193 68 195 -2
1 -103 6 -225 10 l-221 7 -25 -79 c-14 -43 -132 -423 -262 -844 -131 -421
-240 -771 -242 -777 -4 -10 42 -13 210 -13 l216 0 25 82 c81 269 96 321 96
329 0 5 -44 9 -99 9 l-98 0 66 210 66 210 538 0 537 0 -5 -22 c-4 -13 -93
-302 -198 -643 l-193 -620 -283 -207 -283 -208 -661 2 -661 3 -144 205 c-135
192 -143 206 -135 235 5 16 193 602 418 1301 l408 1271 286 207 286 207 404
-5 c222 -3 511 -6 641 -6z"/>
</g>
</svg>
