<svg xmlns="http://www.w3.org/2000/svg" width="17.098" height="36.188" viewBox="0 0 17.098 36.188">
  <g transform="translate(-1335.5 -1123.98)">
    <path id="chevron_left_FILL0_wght400_GRAD0_opsz48" d="M29.66,47.087,16,29.494,29.66,11.9h0L32.1,15.039,20.875,29.494,32.1,43.948Z" transform="translate(1320 1112.58)" fill="#fff"/>
    <path id="chevron_left_FILL0_wght400_GRAD0_opsz48_-_Outline" data-name="chevron_left_FILL0_wght400_GRAD0_opsz48 - Outline" d="M29.66,47.588a.5.5,0,0,1-.395-.193L15.605,29.8a.5.5,0,0,1,0-.613l13.66-17.594a.5.5,0,0,1,.79,0l2.437,3.139a.5.5,0,0,1,0,.613L21.508,29.494,32.493,43.642a.5.5,0,0,1,0,.613l-2.437,3.139A.5.5,0,0,1,29.66,47.588ZM16.633,29.494,29.66,46.272l1.8-2.324L20.48,29.8a.5.5,0,0,1,0-.613L31.465,15.039l-1.8-2.324Z" transform="translate(1320 1112.58)" fill="#0d0d0d"/>
  </g>
</svg>
