<svg xmlns="http://www.w3.org/2000/svg" width="17.098" height="36.188" viewBox="0 0 17.098 36.188">
  <g transform="translate(-1335.5 -1123.98)">
    <path id="chevron_left_FILL0_wght400_GRAD0_opsz48" d="M18.437,47.088,32.1,29.494,18.437,11.9h0L16,15.039,27.223,29.494,16,43.948Z" transform="translate(1320 1112.58)" fill="#fff"/>
    <path id="chevron_left_FILL0_wght400_GRAD0_opsz48_-_Outline" data-name="chevron_left_FILL0_wght400_GRAD0_opsz48 - Outline" d="M18.437,47.588a.5.5,0,0,1-.395-.193l-2.437-3.139a.5.5,0,0,1,0-.613L26.59,29.494,15.605,15.346a.5.5,0,0,1,0-.613l2.437-3.139a.5.5,0,0,1,.79,0l13.66,17.594a.5.5,0,0,1,0,.613L18.832,47.394A.5.5,0,0,1,18.437,47.588Zm-1.8-3.639,1.8,2.324L31.465,29.494,18.437,12.715l-1.8,2.324L27.618,29.187a.5.5,0,0,1,0,.613Z" transform="translate(1320 1112.58)" fill="#0d0d0d"/>
  </g>
</svg>
